<svg id="图层_1" data-name="图层 1" xmlns="http://www.w3.org/2000/svg" xmlns:xlink="http://www.w3.org/1999/xlink" viewBox="0 0 28 28"><defs><style>.cls-1{fill:url(#未命名的渐变_32);}.cls-2{fill:url(#未命名的渐变_32-2);}.cls-3{opacity:0.86;}.cls-4{fill:url(#未命名的渐变_32-3);}.cls-5{fill:url(#未命名的渐变_32-4);}.cls-6{clip-path:url(#clip-path);}.cls-7{fill:url(#未命名的渐变_32-6);}.cls-8{fill:url(#未命名的渐变_32-7);}.cls-9{fill:url(#未命名的渐变_32-8);}.cls-10{fill:url(#未命名的渐变_32-9);}.cls-11{fill:url(#未命名的渐变_32-10);}.cls-12{fill:url(#未命名的渐变_32-11);}.cls-13{fill:url(#未命名的渐变_32-12);}.cls-14{fill:url(#未命名的渐变_32-13);}.cls-15{fill:url(#未命名的渐变_32-14);}.cls-16{fill:url(#未命名的渐变_32-15);}.cls-17{fill:url(#未命名的渐变_32-16);}.cls-18{fill:url(#未命名的渐变_32-17);}.cls-19{fill:url(#未命名的渐变_32-18);}.cls-20{fill:url(#未命名的渐变_32-19);}.cls-21{fill:url(#未命名的渐变_32-20);}.cls-22{fill:url(#未命名的渐变_32-21);}.cls-23{fill:url(#未命名的渐变_32-22);}.cls-24{fill:url(#未命名的渐变_32-23);}.cls-25{fill:url(#未命名的渐变_32-24);}.cls-26{fill:url(#未命名的渐变_32-25);}.cls-27{fill:url(#未命名的渐变_32-26);}.cls-28{fill:url(#未命名的渐变_32-27);}.cls-29{fill:url(#未命名的渐变_32-28);}.cls-30{fill:url(#未命名的渐变_32-29);}.cls-31{fill:url(#未命名的渐变_32-30);}.cls-32{fill:url(#未命名的渐变_32-31);}.cls-33{fill:url(#未命名的渐变_32-32);}.cls-34{fill:url(#未命名的渐变_32-33);}.cls-35{fill:url(#未命名的渐变_32-34);}.cls-36{fill:url(#未命名的渐变_32-35);}.cls-37{fill:url(#未命名的渐变_32-36);}.cls-38{fill:url(#未命名的渐变_32-37);}.cls-39{fill:url(#未命名的渐变_32-38);}.cls-40{fill:url(#未命名的渐变_32-39);}.cls-41{fill:url(#未命名的渐变_32-40);}.cls-42{fill:url(#未命名的渐变_32-41);}.cls-43{fill:url(#未命名的渐变_32-42);}.cls-44{fill:url(#未命名的渐变_32-43);}.cls-45{fill:url(#未命名的渐变_32-44);}.cls-46{fill:url(#未命名的渐变_32-45);}.cls-47{fill:url(#未命名的渐变_32-46);}.cls-48{fill:url(#未命名的渐变_32-47);}.cls-49{fill:url(#未命名的渐变_32-48);}.cls-50{fill:url(#未命名的渐变_32-49);}.cls-51{fill:url(#未命名的渐变_32-50);}.cls-52{fill:url(#未命名的渐变_32-51);}.cls-53{fill:url(#未命名的渐变_32-52);}.cls-54{fill:url(#未命名的渐变_32-53);}.cls-55{fill:url(#未命名的渐变_32-55);}.cls-56{fill:url(#未命名的渐变_32-56);}.cls-57{fill:url(#未命名的渐变_32-57);}.cls-58{fill:url(#未命名的渐变_32-58);}.cls-59{fill:url(#未命名的渐变_32-59);}.cls-60{fill:url(#未命名的渐变_32-60);}.cls-61{fill:url(#未命名的渐变_32-61);}.cls-62{fill:url(#未命名的渐变_32-62);}.cls-63{fill:url(#未命名的渐变_32-63);}.cls-64{fill:url(#未命名的渐变_32-64);}.cls-65{fill:url(#未命名的渐变_32-65);}.cls-66{fill:url(#未命名的渐变_32-66);}.cls-67{fill:url(#未命名的渐变_32-67);}.cls-68{fill:url(#未命名的渐变_32-68);}.cls-69{fill:url(#未命名的渐变_32-69);}.cls-70{fill:url(#未命名的渐变_32-70);}.cls-71{fill:url(#未命名的渐变_32-71);}.cls-72{fill:url(#未命名的渐变_32-72);}.cls-73{fill:url(#未命名的渐变_32-73);}.cls-74{fill:url(#未命名的渐变_32-74);}.cls-75{fill:url(#未命名的渐变_32-75);}.cls-76{fill:url(#未命名的渐变_32-76);}.cls-77{fill:url(#未命名的渐变_32-77);}.cls-78{fill:url(#未命名的渐变_32-78);}.cls-79{fill:url(#未命名的渐变_32-79);}.cls-80{fill:url(#未命名的渐变_32-80);}.cls-81{fill:url(#未命名的渐变_32-81);}.cls-82{fill:url(#未命名的渐变_32-82);}.cls-83{fill:url(#未命名的渐变_32-83);}.cls-84{fill:url(#未命名的渐变_32-84);}.cls-85{fill:url(#未命名的渐变_32-85);}.cls-86{fill:url(#未命名的渐变_32-86);}.cls-87{fill:url(#未命名的渐变_32-87);}.cls-88{fill:url(#未命名的渐变_32-88);}.cls-89{fill:url(#未命名的渐变_32-89);}.cls-90{fill:url(#未命名的渐变_32-90);}.cls-91{fill:url(#未命名的渐变_32-91);}.cls-92{fill:url(#未命名的渐变_32-92);}.cls-93{fill:url(#未命名的渐变_32-93);}.cls-94{fill:url(#未命名的渐变_32-94);}.cls-95{fill:url(#未命名的渐变_32-95);}.cls-96{fill:url(#未命名的渐变_32-96);}.cls-97{fill:url(#未命名的渐变_32-97);}.cls-98{fill:url(#未命名的渐变_32-98);}.cls-99{fill:url(#未命名的渐变_32-99);}.cls-100{fill:url(#未命名的渐变_32-100);}.cls-101{fill:url(#未命名的渐变_32-101);}.cls-102{clip-path:url(#clip-path-2);}.cls-103{fill:url(#未命名的渐变_32-103);}.cls-104{fill:url(#未命名的渐变_32-104);}.cls-105{fill:url(#未命名的渐变_32-105);}.cls-106{fill:url(#未命名的渐变_32-106);}.cls-107{fill:url(#未命名的渐变_32-107);}.cls-108{fill:url(#未命名的渐变_32-108);}.cls-109{fill:url(#未命名的渐变_32-109);}.cls-110{fill:url(#未命名的渐变_32-110);}.cls-111{fill:url(#未命名的渐变_32-111);}.cls-112{fill:url(#未命名的渐变_32-112);}.cls-113{fill:url(#未命名的渐变_32-113);}.cls-114{fill:url(#未命名的渐变_32-114);}.cls-115{fill:url(#未命名的渐变_32-115);}.cls-116{fill:url(#未命名的渐变_32-116);}.cls-117{fill:url(#未命名的渐变_32-117);}.cls-118{fill:url(#未命名的渐变_32-118);}.cls-119{fill:url(#未命名的渐变_32-119);}.cls-120{fill:url(#未命名的渐变_32-120);}.cls-121{fill:url(#未命名的渐变_32-121);}.cls-122{fill:url(#未命名的渐变_32-122);}.cls-123{fill:url(#未命名的渐变_32-123);}.cls-124{fill:url(#未命名的渐变_32-124);}.cls-125{fill:url(#未命名的渐变_32-125);}.cls-126{fill:url(#未命名的渐变_32-126);}.cls-127{fill:url(#未命名的渐变_32-127);}.cls-128{fill:url(#未命名的渐变_32-128);}.cls-129{fill:url(#未命名的渐变_32-129);}.cls-130{fill:url(#未命名的渐变_32-130);}.cls-131{fill:url(#未命名的渐变_32-131);}.cls-132{fill:url(#未命名的渐变_32-132);}.cls-133{fill:url(#未命名的渐变_32-133);}.cls-134{fill:url(#未命名的渐变_32-134);}.cls-135{fill:url(#未命名的渐变_32-135);}.cls-136{fill:url(#未命名的渐变_32-136);}.cls-137{fill:url(#未命名的渐变_32-137);}.cls-138{fill:url(#未命名的渐变_32-138);}.cls-139{fill:url(#未命名的渐变_32-139);}.cls-140{fill:url(#未命名的渐变_32-140);}.cls-141{fill:url(#未命名的渐变_32-141);}.cls-142{fill:url(#未命名的渐变_32-142);}.cls-143{fill:url(#未命名的渐变_32-143);}.cls-144{fill:url(#未命名的渐变_32-144);}.cls-145{fill:url(#未命名的渐变_32-145);}.cls-146{fill:url(#未命名的渐变_32-146);}.cls-147{fill:url(#未命名的渐变_32-147);}.cls-148{fill:url(#未命名的渐变_32-148);}.cls-149{fill:url(#未命名的渐变_32-149);}.cls-150{fill:url(#未命名的渐变_32-150);}.cls-151{fill:url(#未命名的渐变_32-152);}.cls-152{fill:url(#未命名的渐变_32-153);}.cls-153{fill:url(#未命名的渐变_32-154);}.cls-154{fill:url(#未命名的渐变_32-155);}.cls-155{fill:url(#未命名的渐变_32-156);}.cls-156{fill:url(#未命名的渐变_32-157);}.cls-157{fill:url(#未命名的渐变_32-158);}.cls-158{fill:url(#未命名的渐变_32-159);}.cls-159{fill:url(#未命名的渐变_32-160);}.cls-160{fill:url(#未命名的渐变_32-161);}.cls-161{fill:url(#未命名的渐变_32-162);}.cls-162{fill:url(#未命名的渐变_32-163);}.cls-163{fill:url(#未命名的渐变_32-164);}.cls-164{fill:url(#未命名的渐变_32-165);}.cls-165{fill:url(#未命名的渐变_32-166);}.cls-166{fill:url(#未命名的渐变_32-167);}.cls-167{fill:url(#未命名的渐变_32-168);}.cls-168{fill:url(#未命名的渐变_32-169);}.cls-169{fill:url(#未命名的渐变_32-170);}.cls-170{fill:url(#未命名的渐变_32-171);}.cls-171{fill:url(#未命名的渐变_32-172);}.cls-172{fill:url(#未命名的渐变_32-173);}.cls-173{fill:url(#未命名的渐变_32-174);}.cls-174{fill:url(#未命名的渐变_32-175);}.cls-175{fill:url(#未命名的渐变_32-176);}.cls-176{fill:url(#未命名的渐变_32-177);}.cls-177{fill:url(#未命名的渐变_32-178);}.cls-178{fill:url(#未命名的渐变_32-179);}.cls-179{fill:url(#未命名的渐变_32-180);}.cls-180{fill:url(#未命名的渐变_32-181);}.cls-181{fill:url(#未命名的渐变_32-182);}.cls-182{fill:url(#未命名的渐变_32-183);}.cls-183{fill:url(#未命名的渐变_32-184);}.cls-184{fill:url(#未命名的渐变_32-185);}.cls-185{fill:url(#未命名的渐变_32-186);}.cls-186{fill:url(#未命名的渐变_32-187);}.cls-187{fill:url(#未命名的渐变_32-188);}.cls-188{fill:url(#未命名的渐变_32-189);}.cls-189{fill:url(#未命名的渐变_32-190);}.cls-190{fill:url(#未命名的渐变_32-191);}.cls-191{fill:url(#未命名的渐变_32-192);}.cls-192{fill:url(#未命名的渐变_32-193);}.cls-193{fill:url(#未命名的渐变_32-194);}.cls-194{fill:url(#未命名的渐变_32-195);}.cls-195{fill:url(#未命名的渐变_32-196);}.cls-196{fill:url(#未命名的渐变_32-197);}.cls-197{fill:url(#未命名的渐变_32-198);}.cls-198{fill:url(#未命名的渐变_32-199);}</style><linearGradient id="未命名的渐变_32" x1="28.67" y1="23" x2="0.78" y2="23" gradientUnits="userSpaceOnUse"><stop offset="0" stop-color="#7f47dd"/><stop offset="1" stop-color="#de60b4"/></linearGradient><linearGradient id="未命名的渐变_32-2" x1="28.67" y1="20" x2="0.78" y2="20" xlink:href="#未命名的渐变_32"/><linearGradient id="未命名的渐变_32-3" x1="28.67" y1="8" x2="0.78" y2="8" xlink:href="#未命名的渐变_32"/><linearGradient id="未命名的渐变_32-4" x1="28.67" y1="19.97" x2="0.78" y2="19.97" xlink:href="#未命名的渐变_32"/><clipPath id="clip-path"><polygon class="cls-1" points="13 22 15 22 16 24 12 24 13 22"/></clipPath><linearGradient id="未命名的渐变_32-6" x1="28.67" y1="22" x2="0.78" y2="22" xlink:href="#未命名的渐变_32"/><linearGradient id="未命名的渐变_32-7" x1="28.67" y1="22.01" x2="0.78" y2="22.01" xlink:href="#未命名的渐变_32"/><linearGradient id="未命名的渐变_32-8" x1="28.67" y1="22.03" x2="0.78" y2="22.03" xlink:href="#未命名的渐变_32"/><linearGradient id="未命名的渐变_32-9" x1="28.67" y1="22.05" x2="0.78" y2="22.05" xlink:href="#未命名的渐变_32"/><linearGradient id="未命名的渐变_32-10" x1="28.67" y1="22.07" x2="0.78" y2="22.07" xlink:href="#未命名的渐变_32"/><linearGradient id="未命名的渐变_32-11" x1="28.67" y1="22.09" x2="0.78" y2="22.09" xlink:href="#未命名的渐变_32"/><linearGradient id="未命名的渐变_32-12" x1="28.67" y1="22.12" x2="0.78" y2="22.12" xlink:href="#未命名的渐变_32"/><linearGradient id="未命名的渐变_32-13" x1="28.67" y1="22.14" x2="0.78" y2="22.14" xlink:href="#未命名的渐变_32"/><linearGradient id="未命名的渐变_32-14" x1="28.67" y1="22.16" x2="0.78" y2="22.16" xlink:href="#未命名的渐变_32"/><linearGradient id="未命名的渐变_32-15" x1="28.67" y1="22.18" x2="0.78" y2="22.18" xlink:href="#未命名的渐变_32"/><linearGradient id="未命名的渐变_32-16" x1="28.67" y1="22.2" x2="0.78" y2="22.2" xlink:href="#未命名的渐变_32"/><linearGradient id="未命名的渐变_32-17" x1="28.67" y1="22.22" x2="0.78" y2="22.22" xlink:href="#未命名的渐变_32"/><linearGradient id="未命名的渐变_32-18" x1="28.67" y1="22.24" x2="0.78" y2="22.24" xlink:href="#未命名的渐变_32"/><linearGradient id="未命名的渐变_32-19" x1="28.67" y1="22.26" x2="0.78" y2="22.26" xlink:href="#未命名的渐变_32"/><linearGradient id="未命名的渐变_32-20" x1="28.67" y1="22.28" x2="0.78" y2="22.28" xlink:href="#未命名的渐变_32"/><linearGradient id="未命名的渐变_32-21" x1="28.67" y1="22.31" x2="0.78" y2="22.31" xlink:href="#未命名的渐变_32"/><linearGradient id="未命名的渐变_32-22" x1="28.67" y1="22.33" x2="0.78" y2="22.33" xlink:href="#未命名的渐变_32"/><linearGradient id="未命名的渐变_32-23" x1="28.67" y1="22.35" x2="0.78" y2="22.35" xlink:href="#未命名的渐变_32"/><linearGradient id="未命名的渐变_32-24" x1="28.67" y1="22.37" x2="0.78" y2="22.37" xlink:href="#未命名的渐变_32"/><linearGradient id="未命名的渐变_32-25" x1="28.67" y1="22.39" x2="0.78" y2="22.39" xlink:href="#未命名的渐变_32"/><linearGradient id="未命名的渐变_32-26" x1="28.67" y1="22.41" x2="0.78" y2="22.41" xlink:href="#未命名的渐变_32"/><linearGradient id="未命名的渐变_32-27" x1="28.67" y1="22.43" x2="0.78" y2="22.43" xlink:href="#未命名的渐变_32"/><linearGradient id="未命名的渐变_32-28" x1="28.67" y1="22.45" x2="0.78" y2="22.45" xlink:href="#未命名的渐变_32"/><linearGradient id="未命名的渐变_32-29" x1="28.67" y1="22.47" x2="0.78" y2="22.47" xlink:href="#未命名的渐变_32"/><linearGradient id="未命名的渐变_32-30" x1="28.67" y1="22.49" x2="0.78" y2="22.49" xlink:href="#未命名的渐变_32"/><linearGradient id="未命名的渐变_32-31" x1="28.67" y1="22.52" x2="0.78" y2="22.52" xlink:href="#未命名的渐变_32"/><linearGradient id="未命名的渐变_32-32" x1="28.67" y1="22.54" x2="0.78" y2="22.54" xlink:href="#未命名的渐变_32"/><linearGradient id="未命名的渐变_32-33" x1="28.67" y1="22.56" x2="0.78" y2="22.56" xlink:href="#未命名的渐变_32"/><linearGradient id="未命名的渐变_32-34" x1="28.67" y1="22.58" x2="0.78" y2="22.58" xlink:href="#未命名的渐变_32"/><linearGradient id="未命名的渐变_32-35" x1="28.67" y1="22.6" x2="0.78" y2="22.6" xlink:href="#未命名的渐变_32"/><linearGradient id="未命名的渐变_32-36" x1="28.67" y1="22.62" x2="0.78" y2="22.62" xlink:href="#未命名的渐变_32"/><linearGradient id="未命名的渐变_32-37" x1="28.67" y1="22.64" x2="0.78" y2="22.64" xlink:href="#未命名的渐变_32"/><linearGradient id="未命名的渐变_32-38" x1="28.67" y1="22.66" x2="0.78" y2="22.66" xlink:href="#未命名的渐变_32"/><linearGradient id="未命名的渐变_32-39" x1="28.67" y1="22.68" x2="0.78" y2="22.68" xlink:href="#未命名的渐变_32"/><linearGradient id="未命名的渐变_32-40" x1="28.67" y1="22.71" x2="0.78" y2="22.71" xlink:href="#未命名的渐变_32"/><linearGradient id="未命名的渐变_32-41" x1="28.67" y1="22.73" x2="0.78" y2="22.73" xlink:href="#未命名的渐变_32"/><linearGradient id="未命名的渐变_32-42" x1="28.67" y1="22.75" x2="0.78" y2="22.75" xlink:href="#未命名的渐变_32"/><linearGradient id="未命名的渐变_32-43" x1="28.67" y1="22.77" x2="0.78" y2="22.77" xlink:href="#未命名的渐变_32"/><linearGradient id="未命名的渐变_32-44" x1="28.67" y1="22.79" x2="0.78" y2="22.79" xlink:href="#未命名的渐变_32"/><linearGradient id="未命名的渐变_32-45" x1="28.67" y1="22.81" x2="0.78" y2="22.81" xlink:href="#未命名的渐变_32"/><linearGradient id="未命名的渐变_32-46" x1="28.67" y1="22.83" x2="0.78" y2="22.83" xlink:href="#未命名的渐变_32"/><linearGradient id="未命名的渐变_32-47" x1="28.67" y1="22.85" x2="0.78" y2="22.85" xlink:href="#未命名的渐变_32"/><linearGradient id="未命名的渐变_32-48" x1="28.67" y1="22.87" x2="0.78" y2="22.87" xlink:href="#未命名的渐变_32"/><linearGradient id="未命名的渐变_32-49" x1="28.67" y1="22.89" x2="0.78" y2="22.89" xlink:href="#未命名的渐变_32"/><linearGradient id="未命名的渐变_32-50" x1="28.67" y1="22.92" x2="0.78" y2="22.92" xlink:href="#未命名的渐变_32"/><linearGradient id="未命名的渐变_32-51" x1="28.67" y1="22.94" x2="0.78" y2="22.94" xlink:href="#未命名的渐变_32"/><linearGradient id="未命名的渐变_32-52" x1="28.67" y1="22.96" x2="0.78" y2="22.96" xlink:href="#未命名的渐变_32"/><linearGradient id="未命名的渐变_32-53" x1="28.67" y1="22.98" x2="0.78" y2="22.98" xlink:href="#未命名的渐变_32"/><linearGradient id="未命名的渐变_32-55" x1="28.67" y1="23.02" x2="0.78" y2="23.02" xlink:href="#未命名的渐变_32"/><linearGradient id="未命名的渐变_32-56" x1="28.67" y1="23.04" x2="0.78" y2="23.04" xlink:href="#未命名的渐变_32"/><linearGradient id="未命名的渐变_32-57" x1="28.67" y1="23.06" x2="0.78" y2="23.06" xlink:href="#未命名的渐变_32"/><linearGradient id="未命名的渐变_32-58" x1="28.67" y1="23.08" x2="0.78" y2="23.08" xlink:href="#未命名的渐变_32"/><linearGradient id="未命名的渐变_32-59" x1="28.67" y1="23.11" x2="0.78" y2="23.11" xlink:href="#未命名的渐变_32"/><linearGradient id="未命名的渐变_32-60" x1="28.67" y1="23.13" x2="0.78" y2="23.13" xlink:href="#未命名的渐变_32"/><linearGradient id="未命名的渐变_32-61" x1="28.67" y1="23.15" x2="0.78" y2="23.15" xlink:href="#未命名的渐变_32"/><linearGradient id="未命名的渐变_32-62" x1="28.67" y1="23.17" x2="0.78" y2="23.17" xlink:href="#未命名的渐变_32"/><linearGradient id="未命名的渐变_32-63" x1="28.67" y1="23.19" x2="0.78" y2="23.19" xlink:href="#未命名的渐变_32"/><linearGradient id="未命名的渐变_32-64" x1="28.67" y1="23.21" x2="0.78" y2="23.21" xlink:href="#未命名的渐变_32"/><linearGradient id="未命名的渐变_32-65" x1="28.67" y1="23.23" x2="0.78" y2="23.23" xlink:href="#未命名的渐变_32"/><linearGradient id="未命名的渐变_32-66" x1="28.67" y1="23.25" x2="0.78" y2="23.25" xlink:href="#未命名的渐变_32"/><linearGradient id="未命名的渐变_32-67" x1="28.67" y1="23.27" x2="0.78" y2="23.27" xlink:href="#未命名的渐变_32"/><linearGradient id="未命名的渐变_32-68" x1="28.67" y1="23.29" x2="0.78" y2="23.29" xlink:href="#未命名的渐变_32"/><linearGradient id="未命名的渐变_32-69" x1="28.67" y1="23.32" x2="0.78" y2="23.32" xlink:href="#未命名的渐变_32"/><linearGradient id="未命名的渐变_32-70" x1="28.67" y1="23.34" x2="0.78" y2="23.34" xlink:href="#未命名的渐变_32"/><linearGradient id="未命名的渐变_32-71" x1="28.67" y1="23.36" x2="0.78" y2="23.36" xlink:href="#未命名的渐变_32"/><linearGradient id="未命名的渐变_32-72" x1="28.67" y1="23.38" x2="0.78" y2="23.38" xlink:href="#未命名的渐变_32"/><linearGradient id="未命名的渐变_32-73" x1="28.67" y1="23.4" x2="0.78" y2="23.4" xlink:href="#未命名的渐变_32"/><linearGradient id="未命名的渐变_32-74" x1="28.67" y1="23.42" x2="0.78" y2="23.42" xlink:href="#未命名的渐变_32"/><linearGradient id="未命名的渐变_32-75" x1="28.67" y1="23.44" x2="0.78" y2="23.44" xlink:href="#未命名的渐变_32"/><linearGradient id="未命名的渐变_32-76" x1="28.67" y1="23.46" x2="0.78" y2="23.46" xlink:href="#未命名的渐变_32"/><linearGradient id="未命名的渐变_32-77" x1="28.67" y1="23.48" x2="0.78" y2="23.48" xlink:href="#未命名的渐变_32"/><linearGradient id="未命名的渐变_32-78" x1="28.67" y1="23.51" x2="0.78" y2="23.51" xlink:href="#未命名的渐变_32"/><linearGradient id="未命名的渐变_32-79" x1="28.67" y1="23.53" x2="0.78" y2="23.53" xlink:href="#未命名的渐变_32"/><linearGradient id="未命名的渐变_32-80" x1="28.67" y1="23.55" x2="0.78" y2="23.55" xlink:href="#未命名的渐变_32"/><linearGradient id="未命名的渐变_32-81" x1="28.67" y1="23.57" x2="0.78" y2="23.57" xlink:href="#未命名的渐变_32"/><linearGradient id="未命名的渐变_32-82" x1="28.67" y1="23.59" x2="0.78" y2="23.59" xlink:href="#未命名的渐变_32"/><linearGradient id="未命名的渐变_32-83" x1="28.67" y1="23.61" x2="0.78" y2="23.61" xlink:href="#未命名的渐变_32"/><linearGradient id="未命名的渐变_32-84" x1="28.67" y1="23.63" x2="0.78" y2="23.63" xlink:href="#未命名的渐变_32"/><linearGradient id="未命名的渐变_32-85" x1="28.67" y1="23.65" x2="0.78" y2="23.65" xlink:href="#未命名的渐变_32"/><linearGradient id="未命名的渐变_32-86" x1="28.67" y1="23.67" x2="0.78" y2="23.67" xlink:href="#未命名的渐变_32"/><linearGradient id="未命名的渐变_32-87" x1="28.67" y1="23.69" x2="0.78" y2="23.69" xlink:href="#未命名的渐变_32"/><linearGradient id="未命名的渐变_32-88" x1="28.67" y1="23.72" x2="0.78" y2="23.72" xlink:href="#未命名的渐变_32"/><linearGradient id="未命名的渐变_32-89" x1="28.67" y1="23.74" x2="0.78" y2="23.74" xlink:href="#未命名的渐变_32"/><linearGradient id="未命名的渐变_32-90" x1="28.67" y1="23.76" x2="0.78" y2="23.76" xlink:href="#未命名的渐变_32"/><linearGradient id="未命名的渐变_32-91" x1="28.67" y1="23.78" x2="0.78" y2="23.78" xlink:href="#未命名的渐变_32"/><linearGradient id="未命名的渐变_32-92" x1="28.67" y1="23.8" x2="0.78" y2="23.8" xlink:href="#未命名的渐变_32"/><linearGradient id="未命名的渐变_32-93" x1="28.67" y1="23.82" x2="0.78" y2="23.82" xlink:href="#未命名的渐变_32"/><linearGradient id="未命名的渐变_32-94" x1="28.67" y1="23.84" x2="0.78" y2="23.84" xlink:href="#未命名的渐变_32"/><linearGradient id="未命名的渐变_32-95" x1="28.67" y1="23.86" x2="0.78" y2="23.86" xlink:href="#未命名的渐变_32"/><linearGradient id="未命名的渐变_32-96" x1="28.67" y1="23.88" x2="0.78" y2="23.88" xlink:href="#未命名的渐变_32"/><linearGradient id="未命名的渐变_32-97" x1="28.67" y1="23.91" x2="0.78" y2="23.91" xlink:href="#未命名的渐变_32"/><linearGradient id="未命名的渐变_32-98" x1="28.67" y1="23.93" x2="0.78" y2="23.93" xlink:href="#未命名的渐变_32"/><linearGradient id="未命名的渐变_32-99" x1="28.67" y1="23.95" x2="0.78" y2="23.95" xlink:href="#未命名的渐变_32"/><linearGradient id="未命名的渐变_32-100" x1="28.67" y1="23.97" x2="0.78" y2="23.97" xlink:href="#未命名的渐变_32"/><linearGradient id="未命名的渐变_32-101" x1="28.67" y1="23.99" x2="0.78" y2="23.99" xlink:href="#未命名的渐变_32"/><clipPath id="clip-path-2"><polygon class="cls-2" points="15 21 13 21 12 19 16 19 15 21"/></clipPath><linearGradient id="未命名的渐变_32-103" x1="28.67" y1="21" x2="0.78" y2="21" xlink:href="#未命名的渐变_32"/><linearGradient id="未命名的渐变_32-104" x1="28.67" y1="20.99" x2="0.78" y2="20.99" xlink:href="#未命名的渐变_32"/><linearGradient id="未命名的渐变_32-105" x1="28.67" y1="20.97" x2="0.78" y2="20.97" xlink:href="#未命名的渐变_32"/><linearGradient id="未命名的渐变_32-106" x1="28.67" y1="20.95" x2="0.78" y2="20.95" xlink:href="#未命名的渐变_32"/><linearGradient id="未命名的渐变_32-107" x1="28.67" y1="20.93" x2="0.78" y2="20.93" xlink:href="#未命名的渐变_32"/><linearGradient id="未命名的渐变_32-108" x1="28.67" y1="20.91" x2="0.78" y2="20.91" xlink:href="#未命名的渐变_32"/><linearGradient id="未命名的渐变_32-109" x1="28.67" y1="20.88" x2="0.78" y2="20.88" xlink:href="#未命名的渐变_32"/><linearGradient id="未命名的渐变_32-110" x1="28.67" y1="20.86" x2="0.78" y2="20.86" xlink:href="#未命名的渐变_32"/><linearGradient id="未命名的渐变_32-111" x1="28.67" y1="20.84" x2="0.78" y2="20.84" xlink:href="#未命名的渐变_32"/><linearGradient id="未命名的渐变_32-112" x1="28.67" y1="20.82" x2="0.78" y2="20.82" xlink:href="#未命名的渐变_32"/><linearGradient id="未命名的渐变_32-113" x1="28.67" y1="20.8" x2="0.78" y2="20.8" xlink:href="#未命名的渐变_32"/><linearGradient id="未命名的渐变_32-114" x1="28.67" y1="20.78" x2="0.78" y2="20.78" xlink:href="#未命名的渐变_32"/><linearGradient id="未命名的渐变_32-115" x1="28.67" y1="20.76" x2="0.78" y2="20.76" xlink:href="#未命名的渐变_32"/><linearGradient id="未命名的渐变_32-116" x1="28.67" y1="20.74" x2="0.78" y2="20.74" xlink:href="#未命名的渐变_32"/><linearGradient id="未命名的渐变_32-117" x1="28.67" y1="20.72" x2="0.78" y2="20.72" xlink:href="#未命名的渐变_32"/><linearGradient id="未命名的渐变_32-118" x1="28.67" y1="20.69" x2="0.78" y2="20.69" xlink:href="#未命名的渐变_32"/><linearGradient id="未命名的渐变_32-119" x1="28.67" y1="20.67" x2="0.78" y2="20.67" xlink:href="#未命名的渐变_32"/><linearGradient id="未命名的渐变_32-120" x1="28.67" y1="20.65" x2="0.78" y2="20.65" xlink:href="#未命名的渐变_32"/><linearGradient id="未命名的渐变_32-121" x1="28.67" y1="20.63" x2="0.78" y2="20.63" xlink:href="#未命名的渐变_32"/><linearGradient id="未命名的渐变_32-122" x1="28.67" y1="20.61" x2="0.78" y2="20.61" xlink:href="#未命名的渐变_32"/><linearGradient id="未命名的渐变_32-123" x1="28.67" y1="20.59" x2="0.78" y2="20.59" xlink:href="#未命名的渐变_32"/><linearGradient id="未命名的渐变_32-124" x1="28.67" y1="20.57" x2="0.78" y2="20.57" xlink:href="#未命名的渐变_32"/><linearGradient id="未命名的渐变_32-125" x1="28.67" y1="20.55" x2="0.78" y2="20.55" xlink:href="#未命名的渐变_32"/><linearGradient id="未命名的渐变_32-126" x1="28.67" y1="20.53" x2="0.78" y2="20.53" xlink:href="#未命名的渐变_32"/><linearGradient id="未命名的渐变_32-127" x1="28.67" y1="20.51" x2="0.78" y2="20.51" xlink:href="#未命名的渐变_32"/><linearGradient id="未命名的渐变_32-128" x1="28.67" y1="20.48" x2="0.78" y2="20.48" xlink:href="#未命名的渐变_32"/><linearGradient id="未命名的渐变_32-129" x1="28.67" y1="20.46" x2="0.78" y2="20.46" xlink:href="#未命名的渐变_32"/><linearGradient id="未命名的渐变_32-130" x1="28.67" y1="20.44" x2="0.78" y2="20.44" xlink:href="#未命名的渐变_32"/><linearGradient id="未命名的渐变_32-131" x1="28.67" y1="20.42" x2="0.78" y2="20.42" xlink:href="#未命名的渐变_32"/><linearGradient id="未命名的渐变_32-132" x1="28.67" y1="20.4" x2="0.78" y2="20.4" xlink:href="#未命名的渐变_32"/><linearGradient id="未命名的渐变_32-133" x1="28.67" y1="20.38" x2="0.78" y2="20.38" xlink:href="#未命名的渐变_32"/><linearGradient id="未命名的渐变_32-134" x1="28.67" y1="20.36" x2="0.78" y2="20.36" xlink:href="#未命名的渐变_32"/><linearGradient id="未命名的渐变_32-135" x1="28.67" y1="20.34" x2="0.78" y2="20.34" xlink:href="#未命名的渐变_32"/><linearGradient id="未命名的渐变_32-136" x1="28.67" y1="20.32" x2="0.78" y2="20.32" xlink:href="#未命名的渐变_32"/><linearGradient id="未命名的渐变_32-137" x1="28.67" y1="20.29" x2="0.78" y2="20.29" xlink:href="#未命名的渐变_32"/><linearGradient id="未命名的渐变_32-138" x1="28.67" y1="20.27" x2="0.78" y2="20.27" xlink:href="#未命名的渐变_32"/><linearGradient id="未命名的渐变_32-139" x1="28.67" y1="20.25" x2="0.78" y2="20.25" xlink:href="#未命名的渐变_32"/><linearGradient id="未命名的渐变_32-140" x1="28.67" y1="20.23" x2="0.78" y2="20.23" xlink:href="#未命名的渐变_32"/><linearGradient id="未命名的渐变_32-141" x1="28.67" y1="20.21" x2="0.78" y2="20.21" xlink:href="#未命名的渐变_32"/><linearGradient id="未命名的渐变_32-142" x1="28.67" y1="20.19" x2="0.78" y2="20.19" xlink:href="#未命名的渐变_32"/><linearGradient id="未命名的渐变_32-143" x1="28.67" y1="20.17" x2="0.78" y2="20.17" xlink:href="#未命名的渐变_32"/><linearGradient id="未命名的渐变_32-144" x1="28.67" y1="20.15" x2="0.78" y2="20.15" xlink:href="#未命名的渐变_32"/><linearGradient id="未命名的渐变_32-145" x1="28.67" y1="20.13" x2="0.78" y2="20.13" xlink:href="#未命名的渐变_32"/><linearGradient id="未命名的渐变_32-146" x1="28.67" y1="20.11" x2="0.78" y2="20.11" xlink:href="#未命名的渐变_32"/><linearGradient id="未命名的渐变_32-147" x1="28.67" y1="20.08" x2="0.78" y2="20.08" xlink:href="#未命名的渐变_32"/><linearGradient id="未命名的渐变_32-148" x1="28.67" y1="20.06" x2="0.78" y2="20.06" xlink:href="#未命名的渐变_32"/><linearGradient id="未命名的渐变_32-149" x1="28.67" y1="20.04" x2="0.78" y2="20.04" xlink:href="#未命名的渐变_32"/><linearGradient id="未命名的渐变_32-150" x1="28.67" y1="20.02" x2="0.78" y2="20.02" xlink:href="#未命名的渐变_32"/><linearGradient id="未命名的渐变_32-152" x1="28.67" y1="19.98" x2="0.78" y2="19.98" xlink:href="#未命名的渐变_32"/><linearGradient id="未命名的渐变_32-153" x1="28.67" y1="19.96" x2="0.78" y2="19.96" xlink:href="#未命名的渐变_32"/><linearGradient id="未命名的渐变_32-154" x1="28.67" y1="19.94" x2="0.78" y2="19.94" xlink:href="#未命名的渐变_32"/><linearGradient id="未命名的渐变_32-155" x1="28.67" y1="19.92" x2="0.78" y2="19.92" xlink:href="#未命名的渐变_32"/><linearGradient id="未命名的渐变_32-156" x1="28.67" y1="19.89" x2="0.78" y2="19.89" xlink:href="#未命名的渐变_32"/><linearGradient id="未命名的渐变_32-157" x1="28.67" y1="19.87" x2="0.78" y2="19.87" xlink:href="#未命名的渐变_32"/><linearGradient id="未命名的渐变_32-158" x1="28.67" y1="19.85" x2="0.78" y2="19.85" xlink:href="#未命名的渐变_32"/><linearGradient id="未命名的渐变_32-159" x1="28.67" y1="19.83" x2="0.78" y2="19.83" xlink:href="#未命名的渐变_32"/><linearGradient id="未命名的渐变_32-160" x1="28.67" y1="19.81" x2="0.78" y2="19.81" xlink:href="#未命名的渐变_32"/><linearGradient id="未命名的渐变_32-161" x1="28.67" y1="19.79" x2="0.78" y2="19.79" xlink:href="#未命名的渐变_32"/><linearGradient id="未命名的渐变_32-162" x1="28.67" y1="19.77" x2="0.78" y2="19.77" xlink:href="#未命名的渐变_32"/><linearGradient id="未命名的渐变_32-163" x1="28.67" y1="19.75" x2="0.78" y2="19.75" xlink:href="#未命名的渐变_32"/><linearGradient id="未命名的渐变_32-164" x1="28.67" y1="19.73" x2="0.78" y2="19.73" xlink:href="#未命名的渐变_32"/><linearGradient id="未命名的渐变_32-165" x1="28.67" y1="19.71" x2="0.78" y2="19.71" xlink:href="#未命名的渐变_32"/><linearGradient id="未命名的渐变_32-166" x1="28.67" y1="19.68" x2="0.78" y2="19.68" xlink:href="#未命名的渐变_32"/><linearGradient id="未命名的渐变_32-167" x1="28.67" y1="19.66" x2="0.78" y2="19.66" xlink:href="#未命名的渐变_32"/><linearGradient id="未命名的渐变_32-168" x1="28.67" y1="19.64" x2="0.78" y2="19.64" xlink:href="#未命名的渐变_32"/><linearGradient id="未命名的渐变_32-169" x1="28.67" y1="19.62" x2="0.78" y2="19.62" xlink:href="#未命名的渐变_32"/><linearGradient id="未命名的渐变_32-170" x1="28.67" y1="19.6" x2="0.78" y2="19.6" xlink:href="#未命名的渐变_32"/><linearGradient id="未命名的渐变_32-171" x1="28.67" y1="19.58" x2="0.78" y2="19.58" xlink:href="#未命名的渐变_32"/><linearGradient id="未命名的渐变_32-172" x1="28.67" y1="19.56" x2="0.78" y2="19.56" xlink:href="#未命名的渐变_32"/><linearGradient id="未命名的渐变_32-173" x1="28.67" y1="19.54" x2="0.78" y2="19.54" xlink:href="#未命名的渐变_32"/><linearGradient id="未命名的渐变_32-174" x1="28.67" y1="19.52" x2="0.78" y2="19.52" xlink:href="#未命名的渐变_32"/><linearGradient id="未命名的渐变_32-175" x1="28.67" y1="19.49" x2="0.78" y2="19.49" xlink:href="#未命名的渐变_32"/><linearGradient id="未命名的渐变_32-176" x1="28.67" y1="19.47" x2="0.78" y2="19.47" xlink:href="#未命名的渐变_32"/><linearGradient id="未命名的渐变_32-177" x1="28.67" y1="19.45" x2="0.78" y2="19.45" xlink:href="#未命名的渐变_32"/><linearGradient id="未命名的渐变_32-178" x1="28.67" y1="19.43" x2="0.78" y2="19.43" xlink:href="#未命名的渐变_32"/><linearGradient id="未命名的渐变_32-179" x1="28.67" y1="19.41" x2="0.78" y2="19.41" xlink:href="#未命名的渐变_32"/><linearGradient id="未命名的渐变_32-180" x1="28.67" y1="19.39" x2="0.78" y2="19.39" xlink:href="#未命名的渐变_32"/><linearGradient id="未命名的渐变_32-181" x1="28.67" y1="19.37" x2="0.78" y2="19.37" xlink:href="#未命名的渐变_32"/><linearGradient id="未命名的渐变_32-182" x1="28.67" y1="19.35" x2="0.78" y2="19.35" xlink:href="#未命名的渐变_32"/><linearGradient id="未命名的渐变_32-183" x1="28.67" y1="19.33" x2="0.78" y2="19.33" xlink:href="#未命名的渐变_32"/><linearGradient id="未命名的渐变_32-184" x1="28.67" y1="19.31" x2="0.78" y2="19.31" xlink:href="#未命名的渐变_32"/><linearGradient id="未命名的渐变_32-185" x1="28.67" y1="19.28" x2="0.78" y2="19.28" xlink:href="#未命名的渐变_32"/><linearGradient id="未命名的渐变_32-186" x1="28.67" y1="19.26" x2="0.78" y2="19.26" xlink:href="#未命名的渐变_32"/><linearGradient id="未命名的渐变_32-187" x1="28.67" y1="19.24" x2="0.78" y2="19.24" xlink:href="#未命名的渐变_32"/><linearGradient id="未命名的渐变_32-188" x1="28.67" y1="19.22" x2="0.78" y2="19.22" xlink:href="#未命名的渐变_32"/><linearGradient id="未命名的渐变_32-189" x1="28.67" y1="19.2" x2="0.78" y2="19.2" xlink:href="#未命名的渐变_32"/><linearGradient id="未命名的渐变_32-190" x1="28.67" y1="19.18" x2="0.78" y2="19.18" xlink:href="#未命名的渐变_32"/><linearGradient id="未命名的渐变_32-191" x1="28.67" y1="19.16" x2="0.78" y2="19.16" xlink:href="#未命名的渐变_32"/><linearGradient id="未命名的渐变_32-192" x1="28.67" y1="19.14" x2="0.78" y2="19.14" xlink:href="#未命名的渐变_32"/><linearGradient id="未命名的渐变_32-193" x1="28.67" y1="19.12" x2="0.78" y2="19.12" xlink:href="#未命名的渐变_32"/><linearGradient id="未命名的渐变_32-194" x1="28.67" y1="19.09" x2="0.78" y2="19.09" xlink:href="#未命名的渐变_32"/><linearGradient id="未命名的渐变_32-195" x1="28.67" y1="19.07" x2="0.78" y2="19.07" xlink:href="#未命名的渐变_32"/><linearGradient id="未命名的渐变_32-196" x1="28.67" y1="19.05" x2="0.78" y2="19.05" xlink:href="#未命名的渐变_32"/><linearGradient id="未命名的渐变_32-197" x1="28.67" y1="19.03" x2="0.78" y2="19.03" xlink:href="#未命名的渐变_32"/><linearGradient id="未命名的渐变_32-198" x1="28.67" y1="19.01" x2="0.78" y2="19.01" xlink:href="#未命名的渐变_32"/><linearGradient id="未命名的渐变_32-199" x1="28.67" y1="19" x2="0.78" y2="19" xlink:href="#未命名的渐变_32"/></defs><title>HRasset</title><g class="cls-3"><path class="cls-4" d="M14,15a7,7,0,1,1,7-7A7,7,0,0,1,14,15ZM14,3a5,5,0,1,0,5,5A5,5,0,0,0,14,3Z"/></g><g class="cls-3"><path class="cls-5" d="M25.25,23.94h-2c0-3.28-4.09-5.94-9.13-5.94S5,20.66,5,23.94H3C3,19.56,8,16,14.12,16S25.25,19.56,25.25,23.94Z"/></g><polygon class="cls-1" points="13 22 15 22 16 24 12 24 13 22"/><g class="cls-6"><polygon class="cls-7" points="16 22 15 22 16 22 16 22"/><polygon class="cls-8" points="16 22.02 12 22.02 12 22 15 22 16 22 16 22.02"/><rect class="cls-9" x="12" y="22.02" width="4" height="0.02"/><rect class="cls-10" x="12" y="22.04" width="4" height="0.02"/><rect class="cls-11" x="12" y="22.06" width="4" height="0.02"/><rect class="cls-12" x="12" y="22.08" width="4" height="0.02"/><rect class="cls-13" x="12" y="22.11" width="4" height="0.02"/><rect class="cls-14" x="12" y="22.13" width="4" height="0.02"/><rect class="cls-15" x="12" y="22.15" width="4" height="0.02"/><rect class="cls-16" x="12" y="22.17" width="4" height="0.02"/><rect class="cls-17" x="12" y="22.19" width="4" height="0.02"/><rect class="cls-18" x="12" y="22.21" width="4" height="0.02"/><rect class="cls-19" x="12" y="22.23" width="4" height="0.02"/><rect class="cls-20" x="12" y="22.25" width="4" height="0.02"/><rect class="cls-21" x="12" y="22.27" width="4" height="0.02"/><rect class="cls-22" x="12" y="22.29" width="4" height="0.02"/><rect class="cls-23" x="12" y="22.32" width="4" height="0.02"/><rect class="cls-24" x="12" y="22.34" width="4" height="0.02"/><rect class="cls-25" x="12" y="22.36" width="4" height="0.02"/><rect class="cls-26" x="12" y="22.38" width="4" height="0.02"/><rect class="cls-27" x="12" y="22.4" width="4" height="0.02"/><rect class="cls-28" x="12" y="22.42" width="4" height="0.02"/><rect class="cls-29" x="12" y="22.44" width="4" height="0.02"/><rect class="cls-30" x="12" y="22.46" width="4" height="0.02"/><rect class="cls-31" x="12" y="22.48" width="4" height="0.02"/><rect class="cls-32" x="12" y="22.51" width="4" height="0.02"/><rect class="cls-33" x="12" y="22.53" width="4" height="0.02"/><rect class="cls-34" x="12" y="22.55" width="4" height="0.02"/><rect class="cls-35" x="12" y="22.57" width="4" height="0.02"/><rect class="cls-36" x="12" y="22.59" width="4" height="0.02"/><rect class="cls-37" x="12" y="22.61" width="4" height="0.02"/><rect class="cls-38" x="12" y="22.63" width="4" height="0.02"/><rect class="cls-39" x="12" y="22.65" width="4" height="0.02"/><rect class="cls-40" x="12" y="22.67" width="4" height="0.02"/><rect class="cls-41" x="12" y="22.69" width="4" height="0.02"/><rect class="cls-42" x="12" y="22.72" width="4" height="0.02"/><rect class="cls-43" x="12" y="22.74" width="4" height="0.02"/><rect class="cls-44" x="12" y="22.76" width="4" height="0.02"/><rect class="cls-45" x="12" y="22.78" width="4" height="0.02"/><rect class="cls-46" x="12" y="22.8" width="4" height="0.02"/><rect class="cls-47" x="12" y="22.82" width="4" height="0.02"/><rect class="cls-48" x="12" y="22.84" width="4" height="0.02"/><rect class="cls-49" x="12" y="22.86" width="4" height="0.02"/><rect class="cls-50" x="12" y="22.88" width="4" height="0.02"/><rect class="cls-51" x="12" y="22.91" width="4" height="0.02"/><rect class="cls-52" x="12" y="22.93" width="4" height="0.02"/><rect class="cls-53" x="12" y="22.95" width="4" height="0.02"/><rect class="cls-54" x="12" y="22.97" width="4" height="0.02"/><rect class="cls-1" x="12" y="22.99" width="4" height="0.02"/><rect class="cls-55" x="12" y="23.01" width="4" height="0.02"/><rect class="cls-56" x="12" y="23.03" width="4" height="0.02"/><rect class="cls-57" x="12" y="23.05" width="4" height="0.02"/><rect class="cls-58" x="12" y="23.07" width="4" height="0.02"/><rect class="cls-59" x="12" y="23.09" width="4" height="0.02"/><rect class="cls-60" x="12" y="23.12" width="4" height="0.02"/><rect class="cls-61" x="12" y="23.14" width="4" height="0.02"/><rect class="cls-62" x="12" y="23.16" width="4" height="0.02"/><rect class="cls-63" x="12" y="23.18" width="4" height="0.02"/><rect class="cls-64" x="12" y="23.2" width="4" height="0.02"/><rect class="cls-65" x="12" y="23.22" width="4" height="0.02"/><rect class="cls-66" x="12" y="23.24" width="4" height="0.02"/><rect class="cls-67" x="12" y="23.26" width="4" height="0.02"/><rect class="cls-68" x="12" y="23.28" width="4" height="0.02"/><rect class="cls-69" x="12" y="23.31" width="4" height="0.02"/><rect class="cls-70" x="12" y="23.33" width="4" height="0.02"/><rect class="cls-71" x="12" y="23.35" width="4" height="0.02"/><rect class="cls-72" x="12" y="23.37" width="4" height="0.02"/><rect class="cls-73" x="12" y="23.39" width="4" height="0.02"/><rect class="cls-74" x="12" y="23.41" width="4" height="0.02"/><rect class="cls-75" x="12" y="23.43" width="4" height="0.02"/><rect class="cls-76" x="12" y="23.45" width="4" height="0.02"/><rect class="cls-77" x="12" y="23.47" width="4" height="0.02"/><rect class="cls-78" x="12" y="23.49" width="4" height="0.02"/><rect class="cls-79" x="12" y="23.52" width="4" height="0.02"/><rect class="cls-80" x="12" y="23.54" width="4" height="0.02"/><rect class="cls-81" x="12" y="23.56" width="4" height="0.02"/><rect class="cls-82" x="12" y="23.58" width="4" height="0.02"/><rect class="cls-83" x="12" y="23.6" width="4" height="0.02"/><rect class="cls-84" x="12" y="23.62" width="4" height="0.02"/><rect class="cls-85" x="12" y="23.64" width="4" height="0.02"/><rect class="cls-86" x="12" y="23.66" width="4" height="0.02"/><rect class="cls-87" x="12" y="23.68" width="4" height="0.02"/><rect class="cls-88" x="12" y="23.71" width="4" height="0.02"/><rect class="cls-89" x="12" y="23.73" width="4" height="0.02"/><rect class="cls-90" x="12" y="23.75" width="4" height="0.02"/><rect class="cls-91" x="12" y="23.77" width="4" height="0.02"/><rect class="cls-92" x="12" y="23.79" width="4" height="0.02"/><rect class="cls-93" x="12" y="23.81" width="4" height="0.02"/><rect class="cls-94" x="12" y="23.83" width="4" height="0.02"/><rect class="cls-95" x="12" y="23.85" width="4" height="0.02"/><rect class="cls-96" x="12" y="23.87" width="4" height="0.02"/><rect class="cls-97" x="12" y="23.89" width="4" height="0.02"/><rect class="cls-98" x="12" y="23.92" width="4" height="0.02"/><rect class="cls-99" x="12" y="23.94" width="4" height="0.02"/><rect class="cls-100" x="12" y="23.96" width="4" height="0.02"/><polygon class="cls-101" points="12 24 12 24 12 23.98 16 23.98 16 24 12 24"/></g><polygon class="cls-2" points="15 21 13 21 12 19 16 19 15 21"/><g class="cls-102"><polygon class="cls-103" points="13 21 16 21 16 21 13 21"/><polygon class="cls-104" points="12 20.98 16 20.98 16 21 13 21 12 21 12 20.98"/><rect class="cls-105" x="12" y="20.96" width="4" height="0.02"/><rect class="cls-106" x="12" y="20.94" width="4" height="0.02"/><rect class="cls-107" x="12" y="20.92" width="4" height="0.02"/><rect class="cls-108" x="12" y="20.89" width="4" height="0.02"/><rect class="cls-109" x="12" y="20.87" width="4" height="0.02"/><rect class="cls-110" x="12" y="20.85" width="4" height="0.02"/><rect class="cls-111" x="12" y="20.83" width="4" height="0.02"/><rect class="cls-112" x="12" y="20.81" width="4" height="0.02"/><rect class="cls-113" x="12" y="20.79" width="4" height="0.02"/><rect class="cls-114" x="12" y="20.77" width="4" height="0.02"/><rect class="cls-115" x="12" y="20.75" width="4" height="0.02"/><rect class="cls-116" x="12" y="20.73" width="4" height="0.02"/><rect class="cls-117" x="12" y="20.71" width="4" height="0.02"/><rect class="cls-118" x="12" y="20.68" width="4" height="0.02"/><rect class="cls-119" x="12" y="20.66" width="4" height="0.02"/><rect class="cls-120" x="12" y="20.64" width="4" height="0.02"/><rect class="cls-121" x="12" y="20.62" width="4" height="0.02"/><rect class="cls-122" x="12" y="20.6" width="4" height="0.02"/><rect class="cls-123" x="12" y="20.58" width="4" height="0.02"/><rect class="cls-124" x="12" y="20.56" width="4" height="0.02"/><rect class="cls-125" x="12" y="20.54" width="4" height="0.02"/><rect class="cls-126" x="12" y="20.52" width="4" height="0.02"/><rect class="cls-127" x="12" y="20.49" width="4" height="0.02"/><rect class="cls-128" x="12" y="20.47" width="4" height="0.02"/><rect class="cls-129" x="12" y="20.45" width="4" height="0.02"/><rect class="cls-130" x="12" y="20.43" width="4" height="0.02"/><rect class="cls-131" x="12" y="20.41" width="4" height="0.02"/><rect class="cls-132" x="12" y="20.39" width="4" height="0.02"/><rect class="cls-133" x="12" y="20.37" width="4" height="0.02"/><rect class="cls-134" x="12" y="20.35" width="4" height="0.02"/><rect class="cls-135" x="12" y="20.33" width="4" height="0.02"/><rect class="cls-136" x="12" y="20.31" width="4" height="0.02"/><rect class="cls-137" x="12" y="20.28" width="4" height="0.02"/><rect class="cls-138" x="12" y="20.26" width="4" height="0.02"/><rect class="cls-139" x="12" y="20.24" width="4" height="0.02"/><rect class="cls-140" x="12" y="20.22" width="4" height="0.02"/><rect class="cls-141" x="12" y="20.2" width="4" height="0.02"/><rect class="cls-142" x="12" y="20.18" width="4" height="0.02"/><rect class="cls-143" x="12" y="20.16" width="4" height="0.02"/><rect class="cls-144" x="12" y="20.14" width="4" height="0.02"/><rect class="cls-145" x="12" y="20.12" width="4" height="0.02"/><rect class="cls-146" x="12" y="20.09" width="4" height="0.02"/><rect class="cls-147" x="12" y="20.07" width="4" height="0.02"/><rect class="cls-148" x="12" y="20.05" width="4" height="0.02"/><rect class="cls-149" x="12" y="20.03" width="4" height="0.02"/><rect class="cls-150" x="12" y="20.01" width="4" height="0.02"/><rect class="cls-2" x="12" y="19.99" width="4" height="0.02"/><rect class="cls-151" x="12" y="19.97" width="4" height="0.02"/><rect class="cls-152" x="12" y="19.95" width="4" height="0.02"/><rect class="cls-153" x="12" y="19.93" width="4" height="0.02"/><rect class="cls-154" x="12" y="19.91" width="4" height="0.02"/><rect class="cls-155" x="12" y="19.88" width="4" height="0.02"/><rect class="cls-156" x="12" y="19.86" width="4" height="0.02"/><rect class="cls-157" x="12" y="19.84" width="4" height="0.02"/><rect class="cls-158" x="12" y="19.82" width="4" height="0.02"/><rect class="cls-159" x="12" y="19.8" width="4" height="0.02"/><rect class="cls-160" x="12" y="19.78" width="4" height="0.02"/><rect class="cls-161" x="12" y="19.76" width="4" height="0.02"/><rect class="cls-162" x="12" y="19.74" width="4" height="0.02"/><rect class="cls-163" x="12" y="19.72" width="4" height="0.02"/><rect class="cls-164" x="12" y="19.69" width="4" height="0.02"/><rect class="cls-165" x="12" y="19.67" width="4" height="0.02"/><rect class="cls-166" x="12" y="19.65" width="4" height="0.02"/><rect class="cls-167" x="12" y="19.63" width="4" height="0.02"/><rect class="cls-168" x="12" y="19.61" width="4" height="0.02"/><rect class="cls-169" x="12" y="19.59" width="4" height="0.02"/><rect class="cls-170" x="12" y="19.57" width="4" height="0.02"/><rect class="cls-171" x="12" y="19.55" width="4" height="0.02"/><rect class="cls-172" x="12" y="19.53" width="4" height="0.02"/><rect class="cls-173" x="12" y="19.51" width="4" height="0.02"/><rect class="cls-174" x="12" y="19.48" width="4" height="0.02"/><rect class="cls-175" x="12" y="19.46" width="4" height="0.02"/><rect class="cls-176" x="12" y="19.44" width="4" height="0.02"/><rect class="cls-177" x="12" y="19.42" width="4" height="0.02"/><rect class="cls-178" x="12" y="19.4" width="4" height="0.02"/><rect class="cls-179" x="12" y="19.38" width="4" height="0.02"/><rect class="cls-180" x="12" y="19.36" width="4" height="0.02"/><rect class="cls-181" x="12" y="19.34" width="4" height="0.02"/><rect class="cls-182" x="12" y="19.32" width="4" height="0.02"/><rect class="cls-183" x="12" y="19.29" width="4" height="0.02"/><rect class="cls-184" x="12" y="19.27" width="4" height="0.02"/><rect class="cls-185" x="12" y="19.25" width="4" height="0.02"/><rect class="cls-186" x="12" y="19.23" width="4" height="0.02"/><rect class="cls-187" x="12" y="19.21" width="4" height="0.02"/><rect class="cls-188" x="12" y="19.19" width="4" height="0.02"/><rect class="cls-189" x="12" y="19.17" width="4" height="0.02"/><rect class="cls-190" x="12" y="19.15" width="4" height="0.02"/><rect class="cls-191" x="12" y="19.13" width="4" height="0.02"/><rect class="cls-192" x="12" y="19.11" width="4" height="0.02"/><rect class="cls-193" x="12" y="19.08" width="4" height="0.02"/><rect class="cls-194" x="12" y="19.06" width="4" height="0.02"/><rect class="cls-195" x="12" y="19.04" width="4" height="0.02"/><rect class="cls-196" x="12" y="19.02" width="4" height="0.02"/><rect class="cls-197" x="12" y="19" width="4" height="0.02"/><rect class="cls-198" x="14" y="17" height="4"/></g></svg>